#!OML:ASF I:\golf\golf\golf 2\Subject 1\2002-09-07\Subject1.ASF
:FULLY-SPECIFIED
:DEGREES
457
root -6.20096 17.8956 -1.91467 -166.974 -0.739414 -174.97
lowerback -9.65294 14.4002 10.9705
upperback -13.673 16.3895 0.747018
thorax -6.72076 6.2474 -3.79393
lowerneck -12.5132 -18.3779 -3.20676
upperneck 7.9416 -24.9245 4.72827
head 5.33156 -12.0842 -0.283277
rclavicle 2.60408e-014 1.19271e-014
rhumerus 101.692 23.5801 -56.0847
rradius 54.0728
rwrist -8.1184
rhand -42.2001 28.5841
rfingers 7.12502
rthumb -15.0879 -0.846025
lclavicle 2.60408e-014 1.19271e-014
lhumerus 69.7762 17.1459 49.7177
lradius 52.5337
lwrist 30.0773
lhand -16.0297 7.53936
lfingers 7.12502
lthumb -169.829 577.273
rfemur 14.9336 -6.58107 21.5297
rtibia 16.825
rfoot 30.0125 -34.5761
rtoes 29.7375
lfemur -29.123 -18.5692 -12.3984
ltibia 29.1595
lfoot 37.291 -42.8312
ltoes 53.3909
458
root -6.18501 17.9034 -1.90244 -166.966 -0.639129 -174.972
lowerback -9.50341 14.2894 10.9133
upperback -13.5933 16.2931 0.77314
thorax -6.74369 6.21741 -3.78077
lowerneck -12.5864 -18.2626 -3.20261
upperneck 7.93388 -24.7598 4.72623
head 5.33461 -12.0013 -0.273252
rclavicle -1.83677e-013 -1.11319e-013
rhumerus 101.285 23.7308 -56.0882
rradius 53.3563
rwrist -8.24258
rhand -42.317 28.5978
rfingers 7.12502
rthumb -15.2006 -0.823838
lclavicle -1.83677e-013 -1.11319e-013
lhumerus 69.6334 16.5504 49.7042
lradius 51.7578
lwrist 30.2419
lhand -15.291 7.54672
lfingers 7.12502
lthumb -169.116 577.245
rfemur 14.7559 -6.59128 21.5376
rtibia 17.0292
rfoot 30.04 -34.545
rtoes 29.7756
lfemur -29.0761 -18.4978 -12.3481
ltibia 28.9907
lfoot 37.4054 -42.7728
ltoes 53.3941
459
root -6.17291 17.9093 -1.89327 -167.028 -0.481318 -174.955
lowerback -9.28233 10.4202 11.5629
upperback -13.1424 17.1555 1.54214
thorax -6.81427 9.08307 -3.78209
lowerneck -12.586 -18.1184 -3.06944
upperneck 7.73393 -24.569 4.75076
head 5.25303 -11.9097 -0.24758
rclavicle -1.11717e-013 -5.1684e-014
rhumerus 100.901 23.8567 -56.1029
rradius 52.7338
rwrist -8.23183
rhand -42.3686 28.6444
rfingers 7.12502
rthumb -15.2502 -0.773465
lclavicle -1.11717e-013 -5.1684e-014
lhumerus 69.416 16.0872 49.5323
lradius 51.0972
lwrist 30.7413
lhand -14.9144 7.5755
lfingers 7.12502
lthumb -168.753 577.254
rfemur 14.6935 -6.73702 21.4382
rtibia 17.1798
rfoot 30.5903 -33.8686
rtoes 29.0906
lfemur -28.9343 -18.3994 -12.3425
ltibia 28.8436
lfoot 37.3346 -42.7281
ltoes 53.3917
460
root -6.16237 17.9147 -1.88648 -167.14 -0.235635 -174.951
lowerback -9.19545 10.4343 11.5441
upperback -12.9152 17.0522 1.57799
thorax -6.61517 9.0125 -3.72225
lowerneck -12.7104 -17.9896 -2.90172
upperneck 7.58369 -24.3795 4.64783
head 5.18588 -11.8195 -0.273088
rclavicle -4.39314e-014 -6.20208e-014
rhumerus 100.606 23.909 -56.022
rradius 52.0241
rwrist -8.2412
rhand -42.3303 28.509
rfingers 7.12502
rthumb -15.2134 -0.911628
lclavicle -4.39314e-014 -6.20208e-014
lhumerus 69.2999 15.5924 49.4824
lradius 50.4007
lwrist 31.1614
lhand -14.7706 7.80866
lfingers 7.12502
lthumb -168.614 577.48
rfemur 14.7029 -6.78837 21.2967
rtibia 17.3011
rfoot 30.9186 -33.416
rtoes 28.7796
lfemur -28.7103 -18.2272 -12.4108
ltibia 28.7117
lfoot 37.0018 -42.8529
ltoes 53.1714
461
root -6.14725 17.9235 -1.87596 -167.157 -0.0378446 -175.024
lowerback -9.1412 10.4386 11.3708
upperback -12.7213 16.9526 1.58546
thorax -6.46249 8.95552 -3.61836
lowerneck -13.0164 -17.8916 -2.90379
upperneck 7.69841 -24.2304 4.60267
head 5.25946 -11.7358 -0.304132
rclavicle 8.54774e-015 3.97569e-015
rhumerus 100.406 23.9089 -55.8493
rradius 51.1904
rwrist -8.32844
rhand -42.2719 28.3365
rfingers 7.12502
rthumb -15.1571 -1.08844
lclavicle 8.54774e-015 3.97569e-015
lhumerus 69.267 15.0267 49.5745
lradius 49.6333
lwrist 31.4221
lhand -14.5571 7.93706
lfingers 7.12502
lthumb -168.408 577.596
rfemur 14.5992 -6.69348 21.2018
rtibia 17.4215
rfoot 30.6746 -33.6683
rtoes 29.1967
lfemur -28.6057 -18.0975 -12.4818
ltibia 28.5634
lfoot 36.6677 -43.1028
ltoes 52.8078
462
root -6.12842 17.933 -1.86176 -167.131 0.0338861 -174.984
lowerback -9.08078 10.3714 11.2737
upperback -12.6342 16.82 1.61977
thorax -6.43734 8.88461 -3.55259
lowerneck -13.0835 -17.762 -2.99552
upperneck 7.78879 -24.0656 4.73232
head 5.32134 -11.645 -0.255909
rclavicle 2.72335e-014 6.04305e-014
rhumerus 100.076 23.9452 -55.7135
rradius 50.4401
rwrist -8.36435
rhand -42.3274 28.0899
rfingers 7.12502
rthumb -15.2106 -1.33096
lclavicle 2.72335e-014 6.04305e-014
lhumerus 69.0843 14.4075 49.5144
lradius 48.8805
lwrist 31.9875
lhand -14.4042 7.88109
lfingers 7.12502
lthumb -168.261 577.532
rfemur 14.4246 -6.66351 21.301
rtibia 17.5701
rfoot 30.5228 -33.8409
rtoes 29.462
lfemur -28.579 -18.0382 -12.3383
ltibia 28.3934
lfoot 36.5239 -43.229
ltoes 52.6143
463
root -6.10965 17.9397 -1.8476 -167.17 0.0735007 -174.858
lowerback -9.00392 10.2783 11.2591
upperback -12.487 16.6374 1.72419
thorax -6.36169 8.78568 -3.45506
lowerneck -13.2033 -17.582 -2.99134
upperneck 7.78653 -23.8234 4.78755
head 5.33869 -11.5195 -0.227153
rclavicle -1.24439e-013 -1.44715e-013
rhumerus 99.823 23.9737 -55.4457
rradius 49.8138
rwrist -8.50292
rhand -42.3081 28.0141
rfingers 7.12502
rthumb -15.1919 -1.40816
lclavicle -1.24439e-013 -1.44715e-013
lhumerus 68.8991 13.866 49.5275
lradius 48.1516
lwrist 32.563
lhand -14.5204 7.84444
lfingers 7.12502
lthumb -168.373 577.502
rfemur 14.2962 -6.64854 21.4927
rtibia 17.7779
rfoot 30.5457 -33.7658
rtoes 29.4294
lfemur -28.4787 -17.8495 -12.1593
ltibia 28.206
lfoot 36.8995 -43.0658
ltoes 52.7824
464
root -6.09274 17.9447 -1.83161 -167.245 0.147158 -174.885
lowerback -8.94053 10.2099 11.1371
upperback -12.2329 16.4283 1.79741
thorax -6.16705 8.67247 -3.31565
lowerneck -13.5633 -17.389 -2.80664
upperneck 7.77376 -23.5353 4.58242
head 5.3347 -11.3757 -0.300407
rclavicle 3.91606e-014 7.63333e-014
rhumerus 99.8105 23.9808 -55.0629
rradius 49.0874
rwrist -8.7728
rhand -42.1343 28.1008
rfingers 7.12502
rthumb -15.0246 -1.33407
lclavicle 3.91606e-014 7.63333e-014
lhumerus 68.891 13.392 49.927
lradius 47.4344
lwrist 32.8774
lhand -14.7089 7.78319
lfingers 7.12502
lthumb -168.555 577.451
rfemur 14.2044 -6.57149 21.5138
rtibia 18.0097
rfoot 30.7839 -33.3729
rtoes 28.7055
lfemur -28.3407 -17.6342 -12.1943
ltibia 28.025
lfoot 37.3026 -42.9322
ltoes 52.9088
465
root -6.07874 17.9509 -1.8136 -167.25 0.197437 -175.014
lowerback -8.89082 10.128 10.9501
upperback -12.0789 16.2428 1.81407
thorax -6.07566 8.57592 -3.21481
lowerneck -13.6153 -17.1783 -2.62234
upperneck 7.59886 -23.2244 4.38036
head 5.23246 -11.2345 -0.334344
rclavicle -3.4191e-014 2.22639e-014
rhumerus 99.6764 24.0789 -54.8083
rradius 48.2893
rwrist -9.10549
rhand -41.9419 27.9828
rfingers 7.12502
rthumb -14.8391 -1.4658
lclavicle -3.4191e-014 2.22639e-014
lhumerus 68.8189 12.8009 50.3952
lradius 46.7481
lwrist 33.2896
lhand -14.8589 7.73924
lfingers 7.12502
lthumb -168.699 577.415
rfemur 14.0443 -6.56812 21.3976
rtibia 18.2266
rfoot 31.0251 -32.906
rtoes 27.9342
lfemur -28.3161 -17.5547 -12.286
ltibia 27.8698
lfoot 37.3481 -42.9787
ltoes 52.7183
466
root -6.06576 17.9595 -1.79544 -167.179 0.222623 -175.032
lowerback -8.84914 10.0507 10.8757
upperback -11.9902 16.0987 1.84448
thorax -6.03364 8.50022 -3.15934
lowerneck -13.5503 -17.0132 -2.61302
upperneck 7.40534 -22.983 4.38114
head 5.15364 -11.1223 -0.293427
rclavicle -7.61345e-014 -5.64548e-014
rhumerus 99.4598 24.1252 -54.5194
rradius 47.5402
rwrist -9.60754
rhand -41.6779 27.7188
rfingers 7.12502
rthumb -14.5849 -1.74844
lclavicle -7.61345e-014 -5.64548e-014
lhumerus 68.6693 12.1534 50.7346
lradius 46.0628
lwrist 33.6333
lhand -15.2801 7.79001
lfingers 7.12502
lthumb -169.105 577.487
rfemur 13.7656 -6.63164 21.3762
rtibia 18.4811
rfoot 30.9592 -32.7698
rtoes 27.9838
lfemur -28.3885 -17.4421 -12.2295
ltibia 27.7089
lfoot 37.4499 -43.0364
ltoes 52.5319
